<?xml version="1.0" encoding="utf-8"?>
<svg viewBox="0 0 1560 804" xmlns="http://www.w3.org/2000/svg" xmlns:xlink="http://www.w3.org/1999/xlink" xmlns:bx="https://boxy-svg.com">
  <defs>
    <linearGradient id="gradient-1-0" gradientUnits="userSpaceOnUse" x1="779.5" y1="218" x2="779.5" y2="586" xlink:href="#gradient-1"/>
    <linearGradient id="gradient-1" bx:pinned="true">
      <stop offset="0.287" style="stop-color: rgb(129, 70, 248);"/>
      <stop offset="0.821" style="stop-color: rgb(104, 56, 199);"/>
    </linearGradient>
  </defs>
  <g transform="matrix(1, 0, 0, 1, 0, -1.4210854715202004e-14)">
    <path fill="none" paint-order="fill stroke markers" d=" M 20 414.2575822659043 L 21 414.86948391010606 L 22 415.4812425601745 L 23 416.09285141879764 L 24 416.7043036903278 L 25 417.31559258085707 L 26 417.92671129829307 L 27 418.53765305243405 L 28 419.14841105504456 L 29 419.7589785199309 L 30 420.36934866301635 L 31 420.9795147024168 L 32 421.5894698585158 L 33 422.19920735404014 L 34 422.80872041413505 L 35 423.41800226643943 L 36 424.0270461411612 L 37 424.6358452711524 L 38 425.2443928919846 L 39 425.85268224202383 L 40 426.4607065625058 L 41 427.0684590976109 L 42 427.6759330945395 L 43 428.28312180358677 L 44 428.8900184782177 L 45 429.49661637514225 L 46 430.10290875438994 L 47 430.70888887938503 L 48 431.31455001702125 L 49 431.9198854377367 L 50 432.52488841558835 L 51 433.12955222832727 L 52 433.7338701574728 L 53 434.33783548838744 L 54 434.94144151035164 L 55 435.5446815166379 L 56 436.1475488045858 L 57 436.7500366756761 L 58 437.35213843560524 L 59 437.95384739435997 L 60 438.55515686629127 L 61 439.15606017018905 L 62 439.75655062935607 L 63 440.3566215716823 L 64 440.9562663297191 L 65 441.5554782407529 L 66 442.15425064688 L 67 442.7525768950796 L 68 443.3504503372885 L 69 443.94786433047466 L 70 444.5448122367109 L 71 445.14128742324897 L 72 445.73728326259277 L 73 446.33279313257253 L 74 446.927810416418 L 75 447.52232850283224 L 76 448.1163407860647 L 77 448.70984066598515 L 78 449.30282154815654 L 79 449.89527684390845 L 80 450.4871999704105 L 81 451.0785843507449 L 82 451.66942341398044 L 83 452.25971059524454 L 84 452.84943933579694 L 85 453.43860308310207 L 86 454.0271952909021 L 87 454.6152094192897 L 88 455.2026389347807 L 89 455.7894773103864 L 90 456.37571802568647 L 91 456.96135456690126 L 92 457.54638042696405 L 93 458.13078910559364 L 94 458.71457410936614 L 95 459.2977289517876 L 96 459.88024715336564 L 97 460.462122241682 L 98 461.0433477514638 L 99 461.62391722465577 L 100 462.20382421049203 L 101 462.78306226556754 L 102 463.3616249539099 L 103 463.93950584705067 L 104 464.5166985240971 L 105 465.09319657180305 L 106 465.6689935846407 L 107 466.2440831648713 L 108 466.8184589226165 L 109 467.39211447592953 L 110 467.96504345086555 L 111 468.537239481553 L 112 469.1086962102641 L 113 469.67940728748545 L 114 470.2493663719888 L 115 470.81856713090133 L 116 471.38700323977594 L 117 471.9546683826617 L 118 472.52155625217404 L 119 473.0876605495647 L 120 473.6529749847917 L 121 474.2174932765894 L 122 474.78120915253805 L 123 475.3441163491338 L 124 475.90620861185806 L 125 476.46747969524694 L 126 477.0279233629609 L 127 477.58753338785385 L 128 478.14630355204235 L 129 478.7042276469748 L 130 479.2612994735003 L 131 479.81751284193757 L 132 480.37286157214396 L 133 480.92733949358353 L 134 481.48094044539636 L 135 482.0336582764664 L 136 482.58548684549 L 137 483.1364200210445 L 138 483.6864516816556 L 139 484.2355757158663 L 140 484.78378602230396 L 141 485.3310765097485 L 142 485.8774410972004 L 143 486.4228737139474 L 144 486.9673682996329 L 145 487.51091880432244 L 146 488.0535191885717 L 147 488.5951634234931 L 148 489.1358454908229 L 149 489.6755593829881 L 150 490.21429910317335 L 151 490.7520586653872 L 152 491.28883209452897 L 153 491.82461342645496 L 154 492.3593967080448 L 155 492.8931759972675 L 156 493.4259453632476 L 157 493.95769888633083 L 158 494.4884306581503 L 159 495.01813478169186 L 160 495.5468053713594 L 161 496.0744365530408 L 162 496.60102246417284 L 163 497.12655725380625 L 164 497.6510350826711 L 165 498.1744501232413 L 166 498.69679655979957 L 167 499.218068588502 L 168 499.7382604174426 L 169 500.2573662667173 L 170 500.77538036848887 L 171 501.29229696705033 L 172 501.80811031888925 L 173 502.3228146927514 L 174 502.8364043697047 L 175 503.3488736432024 L 176 503.8602168191468 L 177 504.3704282159522 L 178 504.8795021646084 L 179 505.38743300874347 L 180 505.8942151046865 L 181 506.39984282153057 L 182 506.9043105411952 L 183 507.4076126584886 L 184 507.9097435811702 L 185 508.4106977300127 L 186 508.91046953886416 L 187 509.40905345470946 L 188 509.90644393773255 L 189 510.4026354613776 L 190 510.8976225124105 L 191 511.39139959098037 L 192 511.8839612106801 L 193 512.3753018986081 L 194 512.8654161954282 L 195 513.3542986554313 L 196 513.8419438465949 L 197 514.3283463506441 L 198 514.8135007631118 L 199 515.2974016933983 L 200 515.7800437648316 L 201 516.2614216147269 L 202 516.7415298944466 L 203 517.220363269459 L 204 517.6979164193982 L 205 518.174184038123 L 206 518.649160833776 L 207 519.1228415288421 L 208 519.5952208602073 L 209 520.066293579217 L 210 520.5360544517351 L 211 521.004498258201 L 212 521.4716197936884 L 213 521.9374138679627 L 214 522.4018753055392 L 215 522.8649989457398 L 216 523.326779642751 L 217 523.7872122656812 L 218 524.2462916986169 L 219 524.7040128406804 L 220 525.1603706060857 L 221 525.6153599241959 L 222 526.0689757395787 L 223 526.521213012063 L 224 526.9720667167949 L 225 527.4215318442934 L 226 527.8696034005063 L 227 528.3162764068653 L 228 528.7615459003414 L 229 529.2054069335006 L 230 529.6478545745581 L 231 530.0888839074337 L 232 530.5284900318057 L 233 530.9666680631665 L 234 531.4034131328755 L 235 531.8387203882144 L 236 532.2725849924402 L 237 532.7050021248399 L 238 533.1359669807828 L 239 533.5654747717749 L 240 533.9935207255122 L 241 534.4201000859326 L 242 534.84520811327 L 243 535.2688400841063 L 244 535.6909912914236 L 245 536.1116570446577 L 246 536.5308326697489 L 247 536.9485135091943 L 248 537.3646949221003 L 249 537.7793722842331 L 250 538.1925409880708 L 251 538.6041964428542 L 252 539.0143340746381 L 253 539.422949326342 L 254 539.8300376578003 L 255 540.2355945458139 L 256 540.6396154841991 L 257 541.0420959838386 L 258 541.443031572731 L 259 541.8424177960404 L 260 542.2402502161465 L 261 542.636524412693 L 262 543.0312359826372 L 263 543.4243805402994 L 264 543.8159537174104 L 265 544.2059511631613 L 266 544.5943685442513 L 267 544.9812015449356 L 268 545.3664458670737 L 269 545.7500972301772 L 270 546.132151371457 L 271 546.5126040458711 L 272 546.8914510261714 L 273 547.2686881029508 L 274 547.6443110846906 L 275 548.0183157978054 L 276 548.3906980866914 L 277 548.7614538137714 L 278 549.1305788595412 L 279 549.498069122615 L 280 549.8639205197717 L 281 550.2281289859993 L 282 550.590690474541 L 283 550.9516009569395 L 284 551.310856423082 L 285 551.6684528812448 L 286 552.0243863581376 L 287 552.3786528989476 L 288 552.7312485673837 L 289 553.0821694457197 L 290 553.4314116348385 L 291 553.7789712542748 L 292 554.1248444422587 L 293 554.4690273557583 L 294 554.8115161705225 L 295 555.1523070811237 L 296 555.4913963009997 L 297 555.8287800624958 L 298 556.1644546169072 L 299 556.4984162345199 L 300 556.830661204653 L 301 557.1611858356988 L 302 557.4899864551651 L 303 557.8170594097148 L 304 558.1424010652074 L 305 558.4660078067392 L 306 558.7878760386827 L 307 559.1080021847279 L 308 559.4263826879205 L 309 559.7430140107031 L 310 560.0578926349526 L 311 560.3710150620213 L 312 560.6823778127742 L 313 560.9919774276284 L 314 561.2998104665913 L 315 561.6058735092992 L 316 561.9101631550543 L 317 562.2126760228641 L 318 562.5134087514775 L 319 562.8123579994227 L 320 563.1095204450447 L 321 563.4048927865415 L 322 563.6984717420011 L 323 563.9902540494382 L 324 564.2802364668303 L 325 564.5684157721535 L 326 564.8547887634182 L 327 565.1393522587057 L 328 565.4221030962019 L 329 565.7030381342338 L 330 565.9821542513041 L 331 566.2594483461253 L 332 566.5349173376547 L 333 566.8085581651287 L 334 567.0803677880965 L 335 567.3503431864539 L 336 567.618481360477 L 337 567.8847793308554 L 338 568.1492341387258 L 339 568.411842845704 L 340 568.6726025339182 L 341 568.9315103060411 L 342 569.1885632853225 L 343 569.4437586156208 L 344 569.697093461435 L 345 569.9485650079358 L 346 570.198170460998 L 347 570.4459070472298 L 348 570.6917720140051 L 349 570.9357626294936 L 350 571.177876182691 L 351 571.418109983449 L 352 571.6564613625058 L 353 571.8929276715149 L 354 572.1275062830757 L 355 572.3601945907615 L 356 572.5909900091488 L 357 572.8198899738467 L 358 573.0468919415244 L 359 573.2719933899405 L 360 573.4951918179696 L 361 573.716484745632 L 362 573.9358697141192 L 363 574.153344285823 L 364 574.3689060443614 L 365 574.582552594606 L 366 574.7942815627084 L 367 575.0040905961268 L 368 575.2119773636516 L 369 575.4179395554323 L 370 575.621974883002 L 371 575.8240810793038 L 372 576.0242558987152 L 373 576.2224971170735 L 374 576.4188025317009 L 375 576.6131699614278 L 376 576.8055972466184 L 377 576.9960822491934 L 378 577.1846228526549 L 379 577.3712169621092 L 380 577.5558625042905 L 381 577.7385574275834 L 382 577.9192997020461 L 383 578.0980873194333 L 384 578.2749182932174 L 385 578.4497906586118 L 386 578.622702472592 L 387 578.7936518139173 L 388 578.9626367831526 L 389 579.1296555026886 L 390 579.2947061167636 L 391 579.4577867914834 L 392 579.6188957148424 L 393 579.778031096743 L 394 579.9351911690161 L 395 580.09037418544 L 396 580.2435784217607 L 397 580.3948021757107 L 398 580.5440437670272 L 399 580.6913015374722 L 400 580.8365738508495 L 401 580.979859093024 L 402 581.1211556719388 L 403 581.2604620176334 L 404 581.3977765822608 L 405 581.5330978401053 L 406 581.6664242875986 L 407 581.797754443337 L 408 581.9270868480982 L 409 582.0544200648565 L 410 582.1797526787999 L 411 582.303083297345 L 412 582.4244105501529 L 413 582.5437330891442 L 414 582.6610495885142 L 415 582.7763587447474 L 416 582.8896592766322 L 417 583.0009499252749 L 418 583.1102294541139 L 419 583.2174966489333 L 420 583.3227503178766 L 421 583.4259892914597 L 422 583.5272124225837 L 423 583.6264185865484 L 424 583.7236066810641 L 425 583.818775626264 L 426 583.9119243647165 L 427 584.0030518614363 L 428 584.0921571038969 L 429 584.1792391020407 L 430 584.264296888291 L 431 584.3473295175622 L 432 584.4283360672703 L 433 584.5073156373434 L 434 584.5842673502315 L 435 584.6591903509163 L 436 584.7320838069209 L 437 584.8029469083187 L 438 584.8717788677427 L 439 584.9385789203939 L 440 585.0033463240504 L 441 585.0660803590749 L 442 585.1267803284233 L 443 585.185445557652 L 444 585.2420753949258 L 445 585.2966692110249 L 446 585.3492263993518 L 447 585.3997463759383 L 448 585.448228579452 L 449 585.4946724712022 L 450 585.539077535146 L 451 585.5814432778943 L 452 585.6217692287172 L 453 585.6600549395489 L 454 585.696299984993 L 455 585.730503962327 L 456 585.7626664915073 L 457 585.7927872151727 L 458 585.8208657986488 L 459 585.8469019299516 L 460 585.8708953197911 L 461 585.8928457015742 L 462 585.9127528314082 L 463 585.9306164881027 L 464 585.946436473173 L 465 585.9602126108417 L 466 585.9719447480405 L 467 585.9816327544128 L 468 585.9892765223137 L 469 585.9948759668131 L 470 585.9984310256946 L 471 585.9999416594576 L 472 585.9994078513174 L 473 585.9968296072052 L 474 585.9922069557682 L 475 585.985539948369 L 476 585.9768286590854 L 477 585.9660731847096 L 478 585.9532736447464 L 479 585.9384301814132 L 480 585.921542959637 L 481 585.9026121670533 L 482 585.8816380140044 L 483 585.8586207335359 L 484 585.8335605813952 L 485 585.8064578360284 L 486 585.7773127985764 L 487 585.746125792873 L 488 585.7128971654402 L 489 585.6776272854844 L 490 585.6403165448928 L 491 585.600965358229 L 492 585.5595741627279 L 493 585.5161434182913 L 494 585.4706736074825 L 495 585.4231652355211 L 496 585.3736188302775 L 497 585.3220349422668 L 498 585.2684141446427 L 499 585.2127570331915 L 500 585.1550642263247 L 501 585.0953363650732 L 502 585.033574113079 L 503 584.9697781565887 L 504 584.903949204446 L 505 584.8360879880826 L 506 584.7661952615115 L 507 584.6942718013178 L 508 584.6203184066503 L 509 584.5443358992127 L 510 584.4663251232543 L 511 584.3862869455605 L 512 584.3042222554437 L 513 584.2201319647331 L 514 584.1340170077642 L 515 584.045878341369 L 516 583.9557169448651 L 517 583.863533820045 L 518 583.7693299911643 L 519 583.6731065049319 L 520 583.5748644304961 L 521 583.4746048594346 L 522 583.3723289057418 L 523 583.268037705816 L 524 583.1617324184473 L 525 583.0534142248043 L 526 582.9430843284217 L 527 582.8307439551858 L 528 582.7163943533218 L 529 582.6000367933798 L 530 582.4816725682203 L 531 582.3613029930004 L 532 582.2389294051582 L 533 582.1145531643991 L 534 581.9881756526802 L 535 581.8597982741946 L 536 581.7294224553565 L 537 581.5970496447844 L 538 581.4626813132863 L 539 581.3263189538422 L 540 581.1879640815879 L 541 581.0476182337984 L 542 580.9052829698707 L 543 580.760959871306 L 544 580.614650541693 L 545 580.4663566066894 L 546 580.316079714004 L 547 580.1638215333785 L 548 580.0095837565689 L 549 579.8533680973268 L 550 579.69517629138 L 551 579.5350100964135 L 552 579.3728712920505 L 553 579.2087616798311 L 554 579.042683083194 L 555 578.8746373474552 L 556 578.7046263397878 L 557 578.5326519492012 L 558 578.3587160865202 L 559 578.1828206843638 L 560 578.0049676971234 L 561 577.8251591009416 L 562 577.6433968936899 L 563 577.4596830949463 L 564 577.2740197459735 L 565 577.0864089096957 L 566 576.8968526706757 L 567 576.705353135092 L 568 576.5119124307153 L 569 576.3165327068848 L 570 576.1192161344843 L 571 575.919964905918 L 572 575.7187812350866 L 573 575.515667357362 L 574 575.3106255295629 L 575 575.10365802993 L 576 574.8947671580997 L 577 574.6839552350799 L 578 574.4712246032229 L 579 574.2565776262003 L 580 574.0400166889763 L 581 573.8215441977811 L 582 573.6011625800849 L 583 573.3788742845699 L 584 573.1546817811037 L 585 572.928587560712 L 586 572.7005941355503 L 587 572.4707040388766 L 588 572.238919825023 L 589 572.0052440693671 L 590 571.769679368304 L 591 571.5322283392168 L 592 571.2928936204477 L 593 571.0516778712689 L 594 570.808583771853 L 595 570.563614023243 L 596 570.3167713473226 L 597 570.0680584867855 L 598 569.8174782051053 L 599 569.565033286505 L 600 569.3107265359254 L 601 569.0545607789945 L 602 568.7965388619958 L 603 568.536663651837 L 604 568.2749380360175 L 605 568.0113649225972 L 606 567.7459472401634 L 607 567.4786879377989 L 608 567.2095899850485 L 609 566.9386563718871 L 610 566.665890108685 L 611 566.3912942261757 L 612 566.1148717754219 L 613 565.8366258277812 L 614 565.5565594748724 L 615 565.2746758285411 L 616 564.9909780208247 L 617 564.7054692039184 L 618 564.4181525501392 L 619 564.1290312518915 L 620 563.8381085216314 L 621 563.5453875918304 L 622 563.2508717149403 L 623 562.9545641633568 L 624 562.656468229383 L 625 562.3565872251928 L 626 562.0549244827944 L 627 561.7514833539927 L 628 561.4462672103529 L 629 561.1392794431622 L 630 560.8305234633928 L 631 560.5200027016633 L 632 560.2077206082015 L 633 559.8936806528048 L 634 559.5778863248032 L 635 559.2603411330191 L 636 558.9410486057292 L 637 558.620012290625 L 638 558.2972357547734 L 639 557.9727225845768 L 640 557.6464763857341 L 641 557.3185007831994 L 642 556.9887994211429 L 643 556.6573759629094 L 644 556.3242340909787 L 645 555.9893775069236 L 646 555.6528099313693 L 647 555.314535103952 L 648 554.9745567832776 L 649 554.6328787468796 L 650 554.2895047911768 L 651 553.9444387314319 L 652 553.5976844017088 L 653 553.2492456548298 L 654 552.8991263623328 L 655 552.5473304144289 L 656 552.1938617199579 L 657 551.8387242063465 L 658 551.4819218195631 L 659 551.1234585240752 L 660 550.7633383028046 L 661 550.4015651570833 L 662 550.0381431066093 L 663 549.6730761894015 L 664 549.3063684617554 L 665 548.9380239981973 L 666 548.56804689144 L 667 548.1964412523362 L 668 547.8232112098335 L 669 547.4483609109288 L 670 547.0718945206215 L 671 546.6938162218677 L 672 546.3141302155333 L 673 545.9328407203479 L 674 545.5499519728575 L 675 545.1654682273775 L 676 544.7793937559456 L 677 544.3917328482744 L 678 544.0024898117032 L 679 543.6116689711505 L 680 543.2192746690661 L 681 542.8253112653827 L 682 542.4297831374673 L 683 542.0326946800731 L 684 541.6340503052896 L 685 541.2338544424949 L 686 540.8321115383055 L 687 540.4288260565274 L 688 540.0240024781061 L 689 539.6176453010773 L 690 539.2097590405165 L 691 538.8003482284892 L 692 538.3894174139999 L 693 537.9769711629426 L 694 537.5630140580491 L 695 537.1475506988386 L 696 536.7305857015663 L 697 536.3121236991722 L 698 535.89216934123 L 699 535.4707272938948 L 700 535.0478022398518 L 701 534.6233988782637 L 702 534.1975219247192 L 703 533.77017611118 L 704 533.3413661859287 L 705 532.9110969135154 L 706 532.4793730747053 L 707 532.0461994664258 L 708 531.6115809017124 L 709 531.1755222096557 L 710 530.7380282353479 L 711 530.2991038398286 L 712 529.8587539000309 L 713 529.4169833087277 L 714 528.9737969744763 L 715 528.5291998215648 L 716 528.0831967899571 L 717 527.6357928352377 L 718 527.1869929285572 L 719 526.7368020565765 L 720 526.2852252214118 L 721 525.8322674405788 L 722 525.3779337469372 L 723 524.9222291886343 L 724 524.4651588290496 L 725 524.0067277467379 L 726 523.5469410353729 L 727 523.0858038036914 L 728 522.6233211754356 L 729 522.1594982892967 L 730 521.6943402988575 L 731 521.2278523725352 L 732 520.7600396935242 L 733 520.2909074597385 L 734 519.8204608837535 L 735 519.3487051927486 L 736 518.875645628449 L 737 518.401287447067 L 738 517.9256359192442 L 739 517.4486963299927 L 740 516.9704739786364 L 741 516.490974178752 L 742 516.0102022581103 L 743 515.5281635586164 L 744 515.0448634362509 L 745 514.5603072610103 L 746 514.0745004168471 L 747 513.5874483016099 L 748 513.0991563269843 L 749 512.6096299184311 L 750 512.118874515128 L 751 511.6268955699076 L 752 511.1336985491977 L 753 510.63928893295997 L 754 510.1436722146296 L 755 509.6468539010538 L 756 509.1488395124311 L 757 508.6496345822494 L 758 508.1492446572252 L 759 507.64767529724134 L 760 507.1449320752855 L 761 506.6410205773883 L 762 506.13594640256133 L 763 505.6297151627345 L 764 505.1223324826942 L 765 504.6138040000207 L 766 504.10413536502506 L 767 503.5933322406869 L 768 503.0814003025913 L 769 502.5683452388656 L 770 502.0541727501163 L 771 501.5388885493659 L 772 501.02249836198894 L 773 500.50500792564895 L 774 499.9864229902343 L 775 499.4667493177945 L 776 498.94599268247623 L 777 498.42415887045877 L 778 497.9012536798904 L 779 497.3772829208233 L 780 496.8522524151494 L 781 496.3261679965357 L 782 495.7990355103591 L 783 495.27086081364183 L 784 494.74164977498623 L 785 494.21140827450944 L 786 493.6801422037783 L 787 493.14785746574364 L 788 492.614559974675 L 789 492.0802556560943 L 790 491.5449504467109 L 791 491.0086502943549 L 792 490.47136115791125 L 793 489.9330890072539 L 794 489.393839823179 L 795 488.8536195973384 L 796 488.3124343321736 L 797 487.7702900408487 L 798 487.2271927471835 L 799 486.68314848558686 L 800 486.1381633009894 L 801 485.5922432487764 L 802 485.04539439472063 L 803 484.49762281491485 L 804 483.94893459570426 L 805 483.39933583361915 L 806 482.8488326353066 L 807 482.29743111746325 L 808 481.74513740676684 L 809 481.1919576398086 L 810 480.63789796302467 L 811 480.082964532628 L 812 479.5271635145398 L 813 478.97050108432126 L 814 478.41298342710473 L 815 477.8546167375252 L 816 477.29540721965117 L 817 476.7353610869161 L 818 476.17448456204886 L 819 475.6127838770052 L 820 475.05026527289795 L 821 474.48693499992817 L 822 473.9227993173152 L 823 473.3578644932276 L 824 472.7921368047131 L 825 472.225622537629 L 826 471.6583279865726 L 827 471.09025945481073 L 828 470.5214232542103 L 829 469.9518257051674 L 830 469.381473136538 L 831 468.81037188556695 L 832 468.2385282978179 L 833 467.66594872710255 L 834 467.09263953541034 L 835 466.5186070928373 L 836 465.9438577775159 L 837 465.36839797554376 L 838 464.7922340809127 L 839 464.21537249543786 L 840 463.63781962868654 L 841 463.05958189790675 L 842 462.48066572795625 L 843 461.901077551231 L 844 461.32082380759374 L 845 460.7399109443022 L 846 460.1583454159379 L 847 459.5761336843339 L 848 458.99328221850357 L 849 458.40979749456824 L 850 457.8256859956855 L 851 457.2409542119773 L 852 456.65560864045716 L 853 456.0696557849589 L 854 455.48310215606375 L 855 454.8959542710282 L 856 454.3082186537116 L 857 453.71990183450373 L 858 453.131010350252 L 859 452.541550744189 L 860 451.95152956585997 L 861 451.3609533710497 L 862 450.76982872170976 L 863 450.17816218588587 L 864 449.5859603376444 L 865 448.9932297569998 L 866 448.3999770298414 L 867 447.80620874786007 L 868 447.211931508475 L 869 446.6171519147606 L 870 446.02187657537274 L 871 445.42611210447586 L 872 444.82986512166906 L 873 444.2331422519126 L 874 443.63595012545454 L 875 443.03829537775687 L 876 442.4401846494215 L 877 441.84162458611723 L 878 441.2426218385053 L 879 440.64318306216546 L 880 440.0433149175226 L 881 439.443024069772 L 882 438.8423171888058 L 883 438.2412009491388 L 884 437.63968202983403 L 885 437.03776711442896 L 886 436.435462890861 L 887 435.83277605139284 L 888 435.22971329253886 L 889 434.62628131499014 L 890 434.0224868235403 L 891 433.41833652701075 L 892 432.81383713817644 L 893 432.2089953736908 L 894 431.60381795401184 L 895 430.9983116033269 L 896 430.39248304947796 L 897 429.78633902388725 L 898 429.17988626148224 L 899 428.57313150062055 L 900 427.96608148301556 L 901 427.35874295366125 L 902 426.75112266075723 L 903 426.1432273556339 L 904 425.53506379267714 L 905 424.92663872925374 L 906 424.3179589256359 L 907 423.7090311449262 L 908 423.0998621529827 L 909 422.4904587183436 L 910 421.8808276121517 L 911 421.27097560807965 L 912 420.66090948225474 L 913 420.0506360131831 L 914 419.4401619816748 L 915 418.82949417076844 L 916 418.21863936565546 L 917 417.60760435360527 L 918 416.9963959238895 L 919 416.38502086770666 L 920 415.7734859781066 L 921 415.16179804991526 L 922 414.54996387965866 L 923 413.93799026548805 L 924 413.32588400710404 L 925 412.7136519056809 L 926 412.10130076379124 L 927 411.4888373853304 L 928 410.8762685754406 L 929 410.26360114043575 L 930 409.65084188772545 L 931 409.0379976257396 L 932 408.42507516385257 L 933 407.8120813123075 L 934 407.19902288214104 L 935 406.5859066851071 L 936 405.97273953360167 L 937 405.3595282405867 L 938 404.74627961951484 L 939 404.1330004842531 L 940 403.519697649008 L 941 402.90637792824907 L 942 402.29304813663356 L 943 401.6797150889307 L 944 401.0663855999459 L 945 400.45306648444466 L 946 399.83976455707773 L 947 399.22648663230456 L 948 398.6132395243181 L 949 398.00003004696873 L 950 397.38686501368886 L 951 396.7737512374169 L 952 396.1606955305218 L 953 395.5477047047275 L 954 394.9347855710367 L 955 394.32194493965585 L 956 393.7091896199188 L 957 393.0965264202118 L 958 392.48396214789744 L 959 391.871503609239 L 960 391.25915760932526 L 961 390.6469309519943 L 962 390.0348304397581 L 963 389.4228628737272 L 964 388.811035053535 L 965 388.1993537772621 L 966 387.58782584136077 L 967 386.9764580405797 L 968 386.365257167888 L 969 385.7542300144002 L 970 385.1433833693007 L 971 384.53272401976807 L 972 383.9222587509 L 973 383.3119943456377 L 974 382.70193758469026 L 975 382.0920952464601 L 976 381.4824741069667 L 977 380.87308093977225 L 978 380.2639225159056 L 979 379.6550056037873 L 980 379.0463369691546 L 981 378.43792337498616 L 982 377.82977158142666 L 983 377.221888345712 L 984 376.6142804220943 L 985 376.0069545617661 L 986 375.39991751278654 L 987 374.7931760200054 L 988 374.18673682498854 L 989 373.5806066659431 L 990 372.97479227764234 L 991 372.3693003913509 L 992 371.7641377347503 L 993 371.1593110318638 L 994 370.55482700298194 L 995 369.95069236458755 L 996 369.34691382928173 L 997 368.74349810570845 L 998 368.14045189848076 L 999 367.53778190810584 L 1000 366.93549483091067 L 1001 366.3335973589679 L 1002 365.73209618002073 L 1003 365.1309979774096 L 1004 364.53030942999715 L 1005 363.9300372120944 L 1006 363.33018799338663 L 1007 362.73076843885883 L 1008 362.13178520872214 L 1009 361.53324495833965 L 1010 360.93515433815236 L 1011 360.3375199936055 L 1012 359.74034856507456 L 1013 359.1436466877915 L 1014 358.54742099177093 L 1015 357.9516781017368 L 1016 357.3564246370483 L 1017 356.7616672116268 L 1018 356.16741243388196 L 1019 355.5736669066386 L 1020 354.9804372270631 L 1021 354.3877299865901 L 1022 353.7955517708497 L 1023 353.2039091595937 L 1024 352.6128087266228 L 1025 352.02225703971357 L 1026 351.4322606605452 L 1027 350.842826144627 L 1028 350.25396004122535 L 1029 349.6656688932909 L 1030 349.0779592373859 L 1031 348.49083760361157 L 1032 347.90431051553554 L 1033 347.3183844901195 L 1034 346.73306603764655 L 1035 346.148361661649 L 1036 345.56427785883625 L 1037 344.98082111902215 L 1038 344.39799792505346 L 1039 343.8158147527375 L 1040 343.23427807077 L 1041 342.65339434066385 L 1042 342.0731700166768 L 1043 341.49361154573955 L 1044 340.9147253673849 L 1045 340.3365179136755 L 1046 339.7589956091327 L 1047 339.18216487066496 L 1048 338.6060321074969 L 1049 338.0306037210976 L 1050 337.4558861051099 L 1051 336.88188564527934 L 1052 336.3086087193827 L 1053 335.7360616971579 L 1054 335.16425094023236 L 1055 334.59318280205326 L 1056 334.0228636278162 L 1057 333.45329975439506 L 1058 332.8844975102714 L 1059 332.3164632154644 L 1060 331.7492031814603 L 1061 331.18272371114256 L 1062 330.6170310987216 L 1063 330.0521316296652 L 1064 329.4880315806283 L 1065 328.92473721938336 L 1066 328.3622548047509 L 1067 327.80059058652955 L 1068 327.2397508054273 L 1069 326.6797416929914 L 1070 326.1205694715395 L 1071 325.56224035409076 L 1072 325.004760544296 L 1073 324.44813623636975 L 1074 323.8923736150208 L 1075 323.33747885538367 L 1076 322.78345812295004 L 1077 322.2303175734999 L 1078 321.67806335303396 L 1079 321.1267015977043 L 1080 320.57623843374716 L 1081 320.0266799774141 L 1082 319.47803233490475 L 1083 318.93030160229813 L 1084 318.3834938654858 L 1085 317.8376152001035 L 1086 317.2926716714643 L 1087 316.7486693344906 L 1088 316.2056142336473 L 1089 315.6635124028742 L 1090 315.12236986551954 L 1091 314.58219263427253 L 1092 314.0429867110969 L 1093 313.504758087164 L 1094 312.9675127427865 L 1095 312.43125664735135 L 1096 311.8959957592541 L 1097 311.3617360258326 L 1098 310.8284833833005 L 1099 310.29624375668175 L 1100 309.7650230597446 L 1101 309.2348271949355 L 1102 308.7056620533143 L 1103 308.17753351448823 L 1104 307.6504474465468 L 1105 307.12440970599647 L 1106 306.59942613769545 L 1107 306.0755025747892 L 1108 305.5526448386452 L 1109 305.0308587387886 L 1110 304.51015007283723 L 1111 303.9905246264377 L 1112 303.47198817320054 L 1113 302.95454647463674 L 1114 302.43820528009314 L 1115 301.92297032668876 L 1116 301.40884733925117 L 1117 300.89584203025277 L 1118 300.3839600997471 L 1119 299.87320723530604 L 1120 299.3635891119561 L 1121 298.85511139211565 L 1122 298.34777972553195 L 1123 297.84159974921823 L 1124 297.3365770873912 L 1125 296.83271735140875 L 1126 296.330026139707 L 1127 295.82850903773885 L 1128 295.3281716179113 L 1129 294.8290194395239 L 1130 294.3310580487068 L 1131 293.83429297835914 L 1132 293.33872974808787 L 1133 292.84437386414595 L 1134 292.35123081937144 L 1135 291.8593060931264 L 1136 291.368605151236 L 1137 290.87913344592806 L 1138 290.3908964157719 L 1139 289.90389948561847 L 1140 289.41814806653974 L 1141 288.93364755576863 L 1142 288.4504033366392 L 1143 287.96842077852676 L 1144 287.48770523678803 L 1145 287.0082620527019 L 1146 286.53009655341003 L 1147 286.05321405185725 L 1148 285.5776198467333 L 1149 285.1033192224133 L 1150 284.63031744889923 L 1151 284.1586197817617 L 1152 283.6882314620808 L 1153 283.2191577163887 L 1154 282.751403756611 L 1155 282.2849747800092 L 1156 281.8198759691227 L 1157 281.3561124917112 L 1158 280.8936895006975 L 1159 280.43261213411006 L 1160 279.97288551502595 L 1161 279.51451475151407 L 1162 279.05750493657814 L 1163 278.60186114810034 L 1164 278.14758844878463 L 1165 277.6946918861009 L 1166 277.24317649222843 L 1167 276.7930472840003 L 1168 276.34430926284756 L 1169 275.89696741474364 L 1170 275.4510267101488 L 1171 275.0064921039553 L 1172 274.56336853543183 L 1173 274.12166092816915 L 1174 273.68137419002494 L 1175 273.24251321306974 L 1176 272.8050828735318 L 1177 272.3690880317439 L 1178 271.93453353208866 L 1179 271.5014242029449 L 1180 271.06976485663427 L 1181 270.63956028936695 L 1182 270.2108152811894 L 1183 269.78353459593075 L 1184 269.35772298114955 L 1185 268.93338516808177 L 1186 268.51052587158756 L 1187 268.08914979009927 L 1188 267.66926160556886 L 1189 267.2508659834165 L 1190 266.83396757247783 L 1191 266.4185710049535 L 1192 266.00468089635643 L 1193 265.5923018454613 L 1194 265.18143843425344 L 1195 264.7720952278776 L 1196 264.36427677458744 L 1197 263.95798760569494 L 1198 263.55323223551994 L 1199 263.15001516134015 L 1200 262.74834086334124 L 1201 262.34821380456674 L 1202 261.94963843086873 L 1203 261.5526191708585 L 1204 261.1571604358569 L 1205 260.76326661984604 L 1206 260.3709420994196 L 1207 259.9801912337349 L 1208 259.5910183644644 L 1209 259.20342781574686 L 1210 258.8174238941401 L 1211 258.43301088857254 L 1212 258.0501930702959 L 1213 257.66897469283754 L 1214 257.2893599919531 L 1215 256.9113531855801 L 1216 256.5349584737901 L 1217 256.16018003874274 L 1218 255.78702204463897 L 1219 255.41548863767485 L 1220 255.04558394599567 L 1221 254.67731207964954 L 1222 254.31067713054253 L 1223 253.9456831723923 L 1224 253.58233426068375 L 1225 253.22063443262311 L 1226 252.86058770709363 L 1227 252.50219808461088 L 1228 252.145469547278 L 1229 251.7904060587418 L 1230 251.43701156414852 L 1231 251.08528999009982 L 1232 250.73524524460987 L 1233 250.38688121706085 L 1234 250.04020177816085 L 1235 249.69521077989992 L 1236 249.35191205550777 L 1237 249.0103094194113 L 1238 248.67040666719168 L 1239 248.3322075755428 L 1240 247.99571590222874 L 1241 247.66093538604252 L 1242 247.3278697467642 L 1243 246.99652268511954 L 1244 246.66689788273936 L 1245 246.33899900211784 L 1246 246.01282968657273 L 1247 245.68839356020408 L 1248 245.3656942278543 L 1249 245.04473527506838 L 1250 244.72552026805346 L 1251 244.4080527536398 L 1252 244.09233625924088 L 1253 243.77837429281448 L 1254 243.46617034282374 L 1255 243.15572787819812 L 1256 242.8470503482953 L 1257 242.54014118286227 L 1258 242.23500379199783 L 1259 241.93164156611428 L 1260 241.63005787589978 L 1261 241.3302560722813 L 1262 241.03223948638671 L 1263 240.73601142950855 L 1264 240.4415751930665 L 1265 240.14893404857125 L 1266 239.85809124758813 L 1267 239.56905002170078 L 1268 239.28181358247548 L 1269 238.9963851214251 L 1270 238.71276780997428 L 1271 238.4309647994234 L 1272 238.1509792209141 L 1273 237.87281418539453 L 1274 237.59647278358426 L 1275 237.32195808594065 L 1276 237.04927314262406 L 1277 236.77842098346434 L 1278 236.50940461792732 L 1279 236.24222703508076 L 1280 235.9768912035619 L 1281 235.71340007154382 L 1282 235.451756566703 L 1283 235.19196359618695 L 1284 234.9340240465814 L 1285 234.67794078387885 L 1286 234.4237166534461 L 1287 234.17135447999323 L 1288 233.92085706754173 L 1289 233.67222719939352 L 1290 233.4254676381003 L 1291 233.18058112543227 L 1292 232.93757038234833 L 1293 232.69643810896525 L 1294 232.457186984528 L 1295 232.21981966738002 L 1296 231.98433879493342 L 1297 231.75074698364003 L 1298 231.51904682896188 L 1299 231.28924090534292 L 1300 231.06133176617982 L 1301 230.83532194379393 L 1302 230.61121394940338 L 1303 230.3890102730945 L 1304 230.16871338379485 L 1305 229.95032572924538 L 1306 229.73384973597325 L 1307 229.51928780926514 L 1308 229.30664233314016 L 1309 229.09591567032373 L 1310 228.88711016222103 L 1311 228.68022812889103 L 1312 228.47527186902096 L 1313 228.2722436599004 L 1314 228.07114575739635 L 1315 227.87198039592775 L 1316 227.67474978844118 L 1317 227.47945612638568 L 1318 227.28610157968882 L 1319 227.09468829673256 L 1320 226.90521840432905 L 1321 226.7176940076975 L 1322 226.53211719044032 L 1323 226.3484900145202 L 1324 226.16681452023727 L 1325 225.98709272620624 L 1326 225.80932662933412 L 1327 225.6335182047979 L 1328 225.45966940602264 L 1329 225.28778216466003 L 1330 225.11785839056637 L 1331 224.949899971782 L 1332 224.78390877450974 L 1333 224.61988664309456 L 1334 224.45783540000292 L 1335 224.29775684580247 L 1336 224.1396527591422 L 1337 223.9835248967325 L 1338 223.82937499332587 L 1339 223.67720476169742 L 1340 223.52701589262588 L 1341 223.37881005487495 L 1342 223.23258889517462 L 1343 223.088354038203 L 1344 222.94610708656802 L 1345 222.80584962079 L 1346 222.66758319928374 L 1347 222.53130935834136 L 1348 222.39702961211535 L 1349 222.26474545260135 L 1350 222.13445834962215 L 1351 222.00616975081078 L 1352 221.87988108159485 L 1353 221.7555937451805 L 1354 221.63330912253682 L 1355 221.51302857238062 L 1356 221.39475343116118 L 1357 221.27848501304553 L 1358 221.16422460990378 L 1359 221.05197349129483 L 1360 220.94173290445215 L 1361 220.83350407427 L 1362 220.72728820328985 L 1363 220.62308647168695 L 1364 220.52090003725723 L 1365 220.4207300354045 L 1366 220.32257757912765 L 1367 220.22644375900865 L 1368 220.1323296432 L 1369 220.0402362774131 L 1370 219.9501646849067 L 1371 219.86211586647528 L 1372 219.7760908004382 L 1373 219.69209044262857 L 1374 219.61011572638287 L 1375 219.53016756253047 L 1376 219.45224683938343 L 1377 219.3763544227268 L 1378 219.3024911558088 L 1379 219.23065785933173 L 1380 219.16085533144255 L 1381 219.09308434772416 L 1382 219.02734566118684 L 1383 218.9636400022597 L 1384 218.9019680787828 L 1385 218.84233057599909 L 1386 218.78472815654686 L 1387 218.7291614604524 L 1388 218.67563110512287 L 1389 218.62413768533946 L 1390 218.57468177325075 L 1391 218.52726391836634 L 1392 218.48188464755083 L 1393 218.43854446501786 L 1394 218.39724385232455 L 1395 218.35798326836618 L 1396 218.3207631493711 L 1397 218.28558390889575 L 1398 218.2524459378202 L 1399 218.22134960434389 L 1400 218.1922952539812 L 1401 218.165283209558 L 1402 218.14031377120784 L 1403 218.11738721636866 L 1404 218.09650379977973 L 1405 218.07766375347882 L 1406 218.06086728679952 L 1407 218.0461145863691 L 1408 218.03340581610632 L 1409 218.02274111721957 L 1410 218.01412060820545 L 1411 218.00754438484725 L 1412 218.00301252021404 L 1413 218.00052506465988 L 1414 218.00008204582312 L 1415 218.0016834686262 L 1416 218.0053293152755 L 1417 218.0110195452617 L 1418 218.01875409536007 L 1419 218.0285328796312 L 1420 218.04035578942208 L 1421 218.05422269336717 L 1422 218.07013343738987 L 1423 218.08808784470435 L 1424 218.10808571581734 L 1425 218.13012682853045 L 1426 218.15421093794274 L 1427 218.18033777645314 L 1428 218.20850705376378 L 1429 218.238718456883 L 1430 218.27097165012879 L 1431 218.30526627513268 L 1432 218.34160195084368 L 1433 218.37997827353237 L 1434 218.42039481679564 L 1435 218.4628511315611 L 1436 218.50734674609245 L 1437 218.5538811659944 L 1438 218.6024538742183 L 1439 218.6530643310679 L 1440 218.70571197420531 L 1441 218.76039621865726 L 1442 218.81711645682162 L 1443 218.87587205847407 L 1444 218.93666237077522 L 1445 218.99948671827778 L 1446 219.06434440293407 L 1447 219.1312347041038 L 1448 219.20015687856218 L 1449 219.2711101605079 L 1450 219.34409376157188 L 1451 219.41910687082603 L 1452 219.49614865479208 L 1453 219.57521825745104 L 1454 219.65631480025255 L 1455 219.73943738212475 L 1456 219.8245850794843 L 1457 219.91175694624647 L 1458 220.00095201383596 L 1459 220.09216929119728 L 1460 220.18540776480611 L 1461 220.28066639868038 L 1462 220.37794413439178 L 1463 220.4772398910776 L 1464 220.57855256545267 L 1465 220.68188103182166 L 1466 220.78722414209153 L 1467 220.89458072578435 L 1468 221.00394959005038 L 1469 221.11532951968107 L 1470 221.22871927712282 L 1471 221.34411760249057 L 1472 221.46152321358193 L 1473 221.58093480589133 L 1474 221.70235105262446 L 1475 221.82577060471323 L 1476 221.95119209083052 L 1477 222.07861411740555 L 1478 222.20803526863935 L 1479 222.33945410652046 L 1480 222.4728691708409 L 1481 222.60827897921246 L 1482 222.74568202708312 L 1483 222.88507678775375 L 1484 223.02646171239505 L 1485 223.16983523006496 L 1486 223.31519574772582 L 1487 223.46254165026232 L 1488 223.6118713004992 L 1489 223.76318303921965 L 1490 223.9164751851838 L 1491 224.07174603514704 L 1492 224.22899386387942 L 1493 224.38821692418432 L 1494 224.5494134469184 L 1495 224.71258164101073 L 1496 224.8777196934831 L 1497 225.04482576947 L 1498 225.2138980122389 L 1499 225.38493454321116 L 1500 225.55793346198251 L 1501 225.7328928463446 L 1502 225.90981075230613 L 1503 226.08868521411426 L 1504 226.26951424427696 L 1505 226.45229583358454 L 1506 226.63702795113235 L 1507 226.82370854434328 L 1508 227.0123355389903 L 1509 227.20290683922002 L 1510 227.39542032757538 L 1511 227.58987386501965 L 1512 227.78626529095996 L 1513 227.98459242327138 L 1514 228.18485305832118 L 1515 228.3870449709932 L 1516 228.59116591471275 L 1517 228.7972136214714 L 1518 229.00518580185232 L 1519 229.21508014505574 L 1520 229.4268943189243 L 1521 229.64062596996948 L 1522 229.85627272339724 L 1523 230.0738321831349 L 1524 230.29330193185726 L 1525 230.5146795310138 L 1526 230.73796252085583 L 1527 230.96314842046337 L 1528 231.19023472777334 L 1529 231.41921891960675 L 1530 231.65009845169723 L 1531 231.88287075871906 L 1532 232.11753325431556 L 1533 232.3540833311282 L 1534 232.59251836082512 L 1535 232.8328356941307 L 1536 233.07503266085487 L 1537 233.31910656992264 L 1538 233.56505470940428 L 1539 233.81287434654513" stroke-linecap="round" stroke-linejoin="round" stroke-miterlimit="10" stroke-width="28" style="stroke: url('#gradient-1-0');"/>
  </g>
</svg>